<svg xmlns="http://www.w3.org/2000/svg" xmlns:svg="http://www.w3.org/2000/svg" id="svg12" width="64" height="64" version="1.1" viewBox="0 0 64 64" style="fill:currentColor"><metadata id="metadata18"/><g id="g833" transform="matrix(0.2,0,0,0.2,0,47.125)"><g id="g822" transform="matrix(3.2,0,0,3.2,0,-185.625)"><path style="fill:#007bff;fill-opacity:1" id="path2" d="M 87.5,46.94 V 6.25 C 87.5,2.804 84.696,0 81.25,0 H 18.75 C 15.304,0 12.5,2.804 12.5,6.25 V 46.94 L 0,57.356 v 0.977 C 0,63.086 2.169,68.75 12.5,68.75 h 75 c 10.331,0 12.5,-5.664 12.5,-10.417 V 57.356 Z M 15.34,50 h 69.32 l 7.501,6.25 -32.603,0.006 -0.608,0.599 c -0.606,0.596 -1.885,1.479 -2.7,1.479 h -12.5 c -0.816,0 -2.094,-0.883 -2.694,-1.473 l -0.61,-0.61 H 7.839 Z M 18.75,4.167 h 62.5 c 1.149,0 2.083,0.934 2.083,2.083 V 45.833 H 16.667 V 6.25 c 0,-1.149 0.934,-2.083 2.083,-2.083 z M 87.5,64.583 h -75 c -5.707,0 -7.579,-1.827 -8.126,-4.166 h 34.42 c 0.98,0.804 2.873,2.083 4.956,2.083 h 12.5 c 2.083,0 3.976,-1.279 4.956,-2.083 h 34.42 c -0.548,2.339 -2.419,4.166 -8.126,4.166 z"/><path style="fill:#007bff;fill-opacity:1" id="path4" d="M 66.104,12.797 C 65.631,12.61 65.12,12.5 64.583,12.5 H 35.417 c -0.537,0 -1.047,0.11 -1.52,0.297 L 50,24.508 Z"/><path style="fill:#007bff;fill-opacity:1" id="path6" d="m 68.687,33.966 c 0.031,-0.207 0.063,-0.417 0.063,-0.632 V 16.667 c 0,-0.206 -0.032,-0.403 -0.061,-0.6 l -9.573,6.962 z"/><path style="fill:#007bff;fill-opacity:1" id="path8" d="m 40.883,23.028 -9.572,-6.962 c -0.028,0.197 -0.061,0.395 -0.061,0.6 v 16.667 c 0,0.215 0.033,0.425 0.063,0.632 z"/><path style="fill:#007bff;fill-opacity:1" id="path10" d="m 51.225,28.768 c -0.364,0.266 -0.795,0.398 -1.225,0.398 -0.43,0 -0.86,-0.132 -1.225,-0.398 L 44.266,25.49 33.993,37.233 c 0.445,0.163 0.921,0.267 1.424,0.267 h 29.167 c 0.503,0 0.979,-0.104 1.425,-0.267 L 55.733,25.49 Z"/></g></g></svg>